<?xml version="1.0" encoding="UTF-8"?>
<svg id="Warstwa_1" data-name="Warstwa 1" xmlns="http://www.w3.org/2000/svg" viewBox="0 0 29.77 23.06">
  <defs>
    <style>
      .cls-1 {
        fill: #017070;
      }
    </style>
  </defs>
  <path class="cls-1" d="m16.75,23.04c-.68-.9-1.35-1.79-2.03-2.7-.07.06-.13.1-.17.16-.55.73-1.11,1.47-1.66,2.21-.08.11-.17.22-.26.33h-5.5c.07-.14.11-.27.19-.37,1.1-1.4,2.12-2.86,3.17-4.29,1.37-1.86,2.73-3.73,4.1-5.6.04-.05.08-.11.14-.19.06.05.11.08.15.13.27.34.53.68.8,1.02.26.33.52.66.77.99.33.43.65.87.99,1.3.31.41.65.79.96,1.21.26.36.57.68.8,1.07.13.22.33.39.51.59h2.99c-.07-.13-.13-.25-.21-.36-.47-.59-.92-1.19-1.38-1.78-.43-.55-.88-1.09-1.31-1.64-.33-.43-.65-.87-.97-1.29-.32-.42-.66-.83-.98-1.24-.22-.28-.44-.57-.66-.86-.13-.17-.26-.34-.4-.5-.17-.21-.36-.4-.49-.63-.08-.15-.27-.2-.29-.39-.29-.23-.43-.58-.69-.84-.15-.15-.26-.34-.38-.52-.1-.15-.27-.23-.34-.4-.07-.16-.18-.26-.31-.37-.13-.11-.2-.28-.32-.41-.29-.34-.55-.71-.82-1.06-.15-.19-.32-.36-.48-.55-.2-.24-.38-.49-.57-.73-.08-.1-.18-.2-.26-.31-.08-.09-.13-.2-.23-.28-.2-.17-.2-.31-.04-.53.28-.38.58-.74.83-1.13.29-.44.63-.83.91-1.27.22-.33.48-.64.72-.97.13-.18.26-.37.4-.55.07-.1.16-.18.25-.27.13.03.18.13.24.21.59.77,1.18,1.54,1.78,2.31.71.92,1.44,1.83,2.15,2.75.91,1.17,1.81,2.34,2.71,3.51.69.89,1.38,1.77,2.07,2.66.4.51.81,1.01,1.19,1.53.25.35.58.64.76,1.04.42.41.73.9,1.09,1.35.43.53.84,1.07,1.25,1.61.45.58.87,1.17,1.33,1.74.18.22.36.43.53.67-.9,1.22-1.79,2.44-2.68,3.65h-10.35Z"/>
  <path class="cls-1" d="m2.33,23.05c-.33-.42-.61-.8-.91-1.18-.35-.44-.7-.89-1.06-1.33-.07-.08-.15-.15-.22-.24-.06-.09-.1-.18-.15-.27.04-.07.07-.12.1-.16.34-.47.68-.93,1.02-1.4.33-.46.65-.94.99-1.4.43-.59.88-1.15,1.31-1.74.52-.72,1.05-1.42,1.57-2.14.21-.3.41-.6.64-.88.22-.28.43-.56.62-.86.29-.42.6-.82.89-1.23.26-.36.51-.72.77-1.08.26-.35.52-.71.79-1.06.26-.34.52-.68.75-1.04.13-.22.31-.4.46-.59.04,0,.05.01.06.02.01,0,.03.01.03.02.03.03.05.06.08.09.04.05.09.1.13.16,1.06,1.36,2.11,2.73,3.16,4.08-.04.26-.24.4-.37.59-.3.41-.6.82-.9,1.23-1.2,1.64-2.4,3.27-3.6,4.91-1.29,1.77-2.59,3.54-3.88,5.32-.05.07-.1.13-.16.2-.74,0-1.47.01-2.15,0Z"/>
</svg>