<svg id="Warstwa_1" data-name="Warstwa 1" xmlns="http://www.w3.org/2000/svg" viewBox="0 0 1920 1080"><defs><style>.cls-1{fill:none;}.cls-2{fill:#007070;}</style></defs><line class="cls-1" x1="699.06" y1="814.88" x2="691.54" y2="833.69"/><polygon class="cls-2" points="336.519 532.451 309.017 570.085 298.192 584.881 267.795 626.446 232.504 674.69 207.636 674.69 180 639.496 257.894 532.974 268.727 518.178 296.244 480.544 336.519 532.451"/><polygon class="cls-2" points="527.091 631.861 495.645 674.686 375.391 674.686 351.266 642.532 327.14 674.686 262.505 674.686 297.795 626.443 313.629 604.784 324.459 589.976 351.974 552.355 409.479 626.443 445.405 626.443 370.219 529.558 354.775 509.65 312.913 457.747 345.409 413.315 351.266 405.31 391.56 457.222 406.996 477.13 527.091 631.861"/><polygon class="cls-2" points="782.503 644.31 738.209 644.31 722.837 607.703 707.792 570.792 675.258 492.479 673.12 497.701 643.13 570.792 628.376 607.703 612.712 644.31 568.429 644.31 653.179 437.63 697.742 437.63 782.503 644.31"/><path class="cls-2" d="M908.29379,578.84915c1.8905-.69784,3.84859-1.51932,5.87426-2.4419a71.93755,71.93755,0,0,0,30.26032-25.984,69.48438,69.48438,0,0,0,11.68119-39.55621,71.33469,71.33469,0,0,0-5.77315-28.49345,73.31836,73.31836,0,0,0-15.64214-23.33931,74.23877,74.23877,0,0,0-23.03571-15.63115,69.24639,69.24639,0,0,0-28.20114-5.77342H789.87409V644.3102h41.62639V583.19282q16.25577,0,27.7283.11264l49.33509,61.00474h52.5534ZM831.50048,473.95608h51.95694a27.64742,27.64742,0,0,1,12.26639,2.80237,32.49323,32.49323,0,0,1,10.0267,7.53946,36.34965,36.34965,0,0,1,6.79711,10.76932,32.137,32.137,0,0,1,2.50949,12.53646q0,15.66522-9.14917,24.96028a30.25854,30.25854,0,0,1-22.45052,9.3066H831.50048Z"/><path class="cls-2" d="M974.39848,437.62964v206.6759h43.11309V437.62964Z"/><polygon class="cls-2" points="1242.205 644.31 1197.912 644.31 1182.562 607.703 1167.516 570.792 1134.994 492.457 1132.845 497.701 1102.854 570.792 1088.078 607.703 1072.436 644.31 1028.143 644.31 1112.881 437.63 1157.467 437.63 1242.205 644.31"/><path class="cls-2" d="M1423.48661,554.11416a61.52247,61.52247,0,0,0-17.99448-21.1117,66.815,66.815,0,0,0,7.38231-15.79929,59.46545,59.46545,0,0,0,2.64467-17.85931,60.56582,60.56582,0,0,0-4.87282-24.05968,61.81422,61.81422,0,0,0-33.06241-33.063,60.44977,60.44977,0,0,0-24.07122-4.88381h-100.673V644.3102h115.44865a60.22055,60.22055,0,0,0,24.06022-4.87282,60.93931,60.93931,0,0,0,19.77206-13.425,64.54653,64.54653,0,0,0,13.29035-19.7726,60.10687,60.10687,0,0,0,4.86128-24.21683A58.65459,58.65459,0,0,0,1423.48661,554.11416Zm-129.32419-80.75482h59.35024a16.7814,16.7814,0,0,1,7.82135,1.92484,24.22568,24.22568,0,0,1,6.65094,5.16515,23.44667,23.44667,0,0,1,4.58,7.53946,25.62562,25.62562,0,0,1,0,17.99448,21.86257,21.86257,0,0,1-4.58,7.39384,25.732,25.732,0,0,1-6.65094,5.00745,16.51931,16.51931,0,0,1-7.82135,1.92429h-59.35024Zm93.15555,119.883a27.85844,27.85844,0,0,1-4.27608,7.38231,24.27193,24.27193,0,0,1-6.33554,5.458,15.19068,15.19068,0,0,1-7.83233,2.21662h-74.7116v-46.938h74.12585a15.84606,15.84606,0,0,1,7.82134,2.05946,26.18567,26.18567,0,0,1,6.63941,5.3113,23.51724,23.51724,0,0,1,4.569,7.51749,24.56922,24.56922,0,0,1,1.632,8.71041A22.60215,22.60215,0,0,1,1387.318,593.24232Z"/><polygon class="cls-2" points="1586.481 602.976 1586.481 644.31 1447.996 644.31 1447.996 437.63 1489.342 437.63 1489.342 602.976 1586.481 602.976"/><polygon class="cls-2" points="1642.568 610.066 1739.696 610.066 1739.696 644.31 1601.234 644.31 1601.234 437.63 1739.696 437.63 1740 472.189 1642.861 472.189 1642.748 523.561 1715.209 523.561 1715.209 561.946 1642.669 561.946 1642.568 610.066"/><line class="cls-1" x1="739.68" y1="833.69" x2="732.01" y2="814.88"/></svg>