<svg width="96" height="96" viewBox="0 0 96 96" fill="none" xmlns="http://www.w3.org/2000/svg">
<g filter="url(#filter0_ii_2430_4338)">
<path d="M70.0943 0H25.6105C9.39973 0 0.21582 9.18391 0.21582 25.3947V69.8371C0.21582 86.0582 9.39973 95.2317 25.6105 95.2317H70.0943C86.3154 95.2317 95.4475 86.0478 95.4475 69.8371V25.3947C95.4475 9.17356 86.305 0 70.0943 0Z" fill="#23724E" fill-opacity="0.72"/>
</g>
<path d="M25.7763 35.0857C24.7276 35.0939 23.7248 35.5172 22.9874 36.263C22.2501 37.0088 21.8381 38.0163 21.8418 39.065V71.7834C21.8722 72.8126 22.3024 73.7895 23.0412 74.5067C23.7799 75.224 24.7691 75.6251 25.7987 75.6251C26.8284 75.6251 27.8175 75.224 28.5563 74.5067C29.295 73.7895 29.7253 72.8126 29.7557 71.7834V39.065C29.7566 38.5422 29.6543 38.0243 29.4546 37.5411C29.2549 37.0579 28.9619 36.6189 28.5922 36.2492C28.2225 35.8795 27.7834 35.5864 27.3002 35.3868C26.817 35.1871 26.2991 35.0848 25.7763 35.0857" fill="#2FC882"/>
<path d="M47.9988 19.4696C46.9501 19.4778 45.9473 19.9011 45.21 20.6469C44.4726 21.3927 44.0607 22.4002 44.0644 23.449V71.7672C44.0948 72.7964 44.525 73.7732 45.2637 74.4905C46.0025 75.2077 46.9916 75.6089 48.0213 75.6089C49.0509 75.6089 50.0401 75.2077 50.7788 74.4905C51.5176 73.7732 51.9478 72.7964 51.9782 71.7672V23.449C51.9791 22.9261 51.8768 22.4083 51.6771 21.9251C51.4775 21.4418 51.1844 21.0028 50.8147 20.6331C50.445 20.2634 50.006 19.9703 49.5227 19.7707C49.0395 19.571 48.5217 19.4687 47.9988 19.4696" fill="#2FC882"/>
<path d="M69.9255 52.356C69.4027 52.3551 68.8848 52.4574 68.4016 52.657C67.9184 52.8567 67.4794 53.1498 67.1097 53.5195C66.74 53.8892 66.4469 54.3282 66.2472 54.8114C66.0476 55.2946 65.9453 55.8125 65.9462 56.3353V71.7833C65.9766 72.8125 66.4068 73.7894 67.1455 74.5067C67.8843 75.2239 68.8734 75.6251 69.9031 75.6251C70.9327 75.6251 71.9219 75.2239 72.6606 74.5067C73.3994 73.7894 73.8296 72.8125 73.86 71.7833V56.3353C73.8637 55.2866 73.4518 54.279 72.7144 53.5333C71.977 52.7875 70.9743 52.3642 69.9255 52.356" fill="#2FC882"/>
<defs>
<filter id="filter0_ii_2430_4338" x="0.21582" y="-11.904" width="95.2317" height="119.04" filterUnits="userSpaceOnUse" color-interpolation-filters="sRGB">
<feFlood flood-opacity="0" result="BackgroundImageFix"/>
<feBlend mode="normal" in="SourceGraphic" in2="BackgroundImageFix" result="shape"/>
<feColorMatrix in="SourceAlpha" type="matrix" values="0 0 0 0 0 0 0 0 0 0 0 0 0 0 0 0 0 0 127 0" result="hardAlpha"/>
<feOffset dy="11.904"/>
<feGaussianBlur stdDeviation="5.95198"/>
<feComposite in2="hardAlpha" operator="arithmetic" k2="-1" k3="1"/>
<feColorMatrix type="matrix" values="0 0 0 0 0.201667 0 0 0 0 0.55 0 0 0 0 0.402222 0 0 0 1 0"/>
<feBlend mode="normal" in2="shape" result="effect1_innerShadow_2430_4338"/>
<feColorMatrix in="SourceAlpha" type="matrix" values="0 0 0 0 0 0 0 0 0 0 0 0 0 0 0 0 0 0 127 0" result="hardAlpha"/>
<feOffset dy="-11.904"/>
<feGaussianBlur stdDeviation="5.95198"/>
<feComposite in2="hardAlpha" operator="arithmetic" k2="-1" k3="1"/>
<feColorMatrix type="matrix" values="0 0 0 0 0.132344 0 0 0 0 0.320833 0 0 0 0 0.240868 0 0 0 1 0"/>
<feBlend mode="normal" in2="effect1_innerShadow_2430_4338" result="effect2_innerShadow_2430_4338"/>
</filter>
</defs>
</svg>
