<?xml version="1.0" encoding="UTF-8"?>
<svg id="Warstwa_1" data-name="Warstwa 1" xmlns="http://www.w3.org/2000/svg" viewBox="0 0 95.23 95.23">
  <defs>
    <style>
      .cls-1 {
        fill: #2fc882;
      }

      .cls-2 {
        fill: rgba(35, 114, 78, .72);
      }
    </style>
  </defs>
  <path class="cls-2" d="m69.88,0H25.39C9.18,0,0,9.18,0,25.39v44.44c0,16.22,9.18,25.39,25.39,25.39h44.48c16.22,0,25.35-9.18,25.35-25.39V25.39c0-16.22-9.14-25.39-25.35-25.39Z"/>
  <path class="cls-1" d="m25.56,35.09c-1.05,0-2.05.43-2.79,1.18-.74.75-1.15,1.75-1.15,2.8v32.72c.03,1.03.46,2.01,1.2,2.72.74.72,1.73,1.12,2.76,1.12s2.02-.4,2.76-1.12c.74-.72,1.17-1.69,1.2-2.72v-32.72c0-.52-.1-1.04-.3-1.52-.2-.48-.49-.92-.86-1.29-.37-.37-.81-.66-1.29-.86-.48-.2-1-.3-1.52-.3"/>
  <path class="cls-1" d="m47.78,19.47c-1.05,0-2.05.43-2.79,1.18-.74.75-1.15,1.75-1.15,2.8v48.32c.03,1.03.46,2.01,1.2,2.72.74.72,1.73,1.12,2.76,1.12s2.02-.4,2.76-1.12c.74-.72,1.17-1.69,1.2-2.72V23.45c0-.52-.1-1.04-.3-1.52-.2-.48-.49-.92-.86-1.29-.37-.37-.81-.66-1.29-.86-.48-.2-1-.3-1.52-.3"/>
  <path class="cls-1" d="m69.71,52.36c-.52,0-1.04.1-1.52.3-.48.2-.92.49-1.29.86-.37.37-.66.81-.86,1.29-.2.48-.3,1-.3,1.52v15.45c.03,1.03.46,2.01,1.2,2.72.74.72,1.73,1.12,2.76,1.12s2.02-.4,2.76-1.12c.74-.72,1.17-1.69,1.2-2.72v-15.45c0-1.05-.41-2.06-1.15-2.8-.74-.75-1.74-1.17-2.79-1.18"/>
</svg>