<svg id="Warstwa_1" data-name="Warstwa 1" xmlns="http://www.w3.org/2000/svg" viewBox="0 0 1920 1080"><defs><style>.cls-1{fill:none;}.cls-2{fill:#007070;}</style></defs><line class="cls-1" x1="699.06" y1="814.88" x2="691.54" y2="833.69"/><polygon class="cls-2" points="928.435 413.49 880.719 478.785 861.936 504.455 809.197 576.573 747.967 660.275 704.821 660.275 656.872 599.214 792.02 414.396 810.815 388.726 858.557 323.431 928.435 413.49"/><polygon class="cls-2" points="1259.078 585.968 1204.519 660.269 995.878 660.269 954.02 604.481 912.162 660.269 800.02 660.269 861.247 576.566 888.72 538.988 907.509 513.296 955.248 448.024 1055.02 576.566 1117.352 576.566 986.904 408.471 960.108 373.93 887.478 283.877 943.859 206.788 954.02 192.899 1023.93 282.966 1050.713 317.507 1259.078 585.968"/><path class="cls-2" d="M704.17993,747.02,660.99,852.33984h22.57007l7.98-18.6499,7.52-18.81006,15.28-37.25,12.55-30.60986Zm22.71021,0-17.01026,14.58984,22.13013,53.27,7.66992,18.81006,7.83008,18.6499h22.57007Z"/><path class="cls-2" d="M855.60986,769.81982a37.35551,37.35551,0,0,0-7.96972-11.88964A37.94621,37.94621,0,0,0,835.8999,749.96,35.31875,35.31875,0,0,0,821.53,747.02H773.84009V852.33984h21.21V821.2002q10.37988,0,16.92993.07959,6.54017.07543,10.98-.14991a42.20427,42.20427,0,0,0,7.53-.98,38.07443,38.07443,0,0,0,6.68994-2.40967A36.75164,36.75164,0,0,0,852.6001,804.5a35.43588,35.43588,0,0,0,5.95-20.16016A36.37548,36.37548,0,0,0,855.60986,769.81982ZM832.97,795.3999A15.42456,15.42456,0,0,1,821.53,800.14014h-26.48V765.52979h26.48a14.13753,14.13753,0,0,1,6.25,1.43017,16.6118,16.6118,0,0,1,5.11011,3.83984,18.58411,18.58411,0,0,1,3.46,5.49024,16.38676,16.38676,0,0,1,1.27978,6.39014Q837.62988,790.65991,832.97,795.3999Zm-8.51611,11.5293-17.61011,11.43018,27.47632,33.98046h26.78Z"/><path class="cls-2" d="M867.87012,747.02V852.33984h21.97V747.02Z"/><path class="cls-2" d="M961.16016,747.02l-17,14.58984,22.11987,53.27L973.95,833.68994l7.82007,18.6499h22.57007Zm-22.72022,0L895.26,852.33984h22.57007l7.97-18.6499,7.53-18.81006,15.27978-37.25L961.16016,747.02Z"/><path class="cls-2" d="M1096.72,806.37988a31.32424,31.32424,0,0,0-9.16992-10.75976,33.996,33.996,0,0,0,3.76-8.0503,30.12844,30.12844,0,0,0,1.3501-9.10009,30.87789,30.87789,0,0,0-2.48023-12.25977,31.49536,31.49536,0,0,0-16.84985-16.8501,30.77063,30.77063,0,0,0-12.27-2.48974H1009.76V852.33984h21.06006v-42.27h37.77a8.09449,8.09449,0,0,1,3.99,1.0503,13.20916,13.20916,0,0,1,3.37988,2.71,11.93394,11.93394,0,0,1,2.33008,3.83008,12.5106,12.5106,0,0,1,.83008,4.43994,11.52022,11.52022,0,0,1-.83008,4.21972,14.13524,14.13524,0,0,1-2.18018,3.76026,12.35237,12.35237,0,0,1-3.23,2.77978,7.68531,7.68531,0,0,1-3.98974,1.13037H1021.04l9.78,18.34961h37.77a30.70608,30.70608,0,0,0,12.26-2.48,31.12945,31.12945,0,0,0,10.07983-6.83984,32.9076,32.9076,0,0,0,6.77-10.08008,30.5733,30.5733,0,0,0,2.48-12.33984A29.90291,29.90291,0,0,0,1096.72,806.37988Zm-25.95-24.52978a11.14923,11.14923,0,0,1-2.33008,3.77,13.01619,13.01619,0,0,1-3.38989,2.5498,8.41122,8.41122,0,0,1-3.99.98h-30.24V765.23h30.24a8.53267,8.53267,0,0,1,3.99.98,12.304,12.304,0,0,1,3.38989,2.62988,11.982,11.982,0,0,1,2.33008,3.84034,13.07758,13.07758,0,0,1,0,9.16992Z"/><path class="cls-2" d="M1109.21,747.02V852.33984H1130.28V747.02Zm9.33008,84.25977,11.74,21.06h49.5v-21.06Z"/><path class="cls-2" d="M1208.51,764.62988h49.5l-.15015-17.60986h-70.55981V852.33984h70.55981v-17.4497h-49.5Zm-9.87753,26.18018,9.77978,19.56006h36.96762V790.81006Z"/><line class="cls-1" x1="739.68" y1="833.69" x2="732.01" y2="814.88"/></svg>