<?xml version="1.0" encoding="UTF-8"?>
<svg id="Warstwa_1" data-name="Warstwa 1" xmlns="http://www.w3.org/2000/svg" viewBox="0 0 115.54 113.09">
  <defs>
    <style>
      .cls-1 {
        fill: rgba(35, 114, 78, .72);
      }

      .cls-2 {
        fill: #2fc882;
        isolation: isolate;
        opacity: .4;
      }
    </style>
  </defs>
  <path class="cls-2" d="m87.46,104.37c0-1.73.5-3.42,1.46-4.86.96-1.44,2.32-2.56,3.91-3.23,1.59-.67,3.35-.85,5.05-.51,1.7.33,3.26,1.16,4.48,2.37,1.23,1.22,2.07,2.77,2.41,4.46.34,1.69.18,3.45-.48,5.05-.65,1.6-1.77,2.97-3.2,3.94-1.43.97-3.12,1.49-4.85,1.49-2.32,0-4.54-.92-6.19-2.55-1.64-1.63-2.58-3.85-2.6-6.17h0Zm-64.91,0c0-1.73.5-3.42,1.45-4.86.95-1.44,2.31-2.57,3.91-3.24,1.59-.67,3.35-.85,5.05-.52,1.7.33,3.26,1.15,4.49,2.37,1.23,1.22,2.07,2.77,2.41,4.46.35,1.69.18,3.45-.47,5.05s-1.77,2.97-3.2,3.94c-1.43.97-3.12,1.49-4.85,1.5-2.32,0-4.54-.91-6.18-2.54-1.64-1.63-2.58-3.84-2.6-6.16h0Z"/>
  <path class="cls-1" d="m95.19,86.47h-62.94c-3.69.01-7.25-1.37-9.97-3.88-2.71-2.5-4.38-5.94-4.67-9.62L12.29,10.09l-8.71-1.5c-.56-.1-1.09-.31-1.57-.61-.48-.3-.89-.7-1.21-1.16-.33-.45-.57-.97-.69-1.52-.13-.55-.15-1.11-.05-1.67.18-1.02.72-1.95,1.52-2.61C2.38.35,3.39,0,4.43,0c.22,0,.44.02.65.05l13.76,2.09c.94.17,1.8.65,2.45,1.36.65.71,1.04,1.61,1.12,2.57l1.1,12.92c.07.88.48,1.7,1.13,2.3.65.6,1.5.93,2.39.93h77.94c1.57-.05,3.12.27,4.54.95,1.42.67,2.65,1.67,3.6,2.92,1.04,1.41,1.77,3.02,2.15,4.73.38,1.71.39,3.48.04,5.19l-5.48,37.84c-.52,3.5-2.28,6.71-4.96,9.02-2.68,2.32-6.1,3.59-9.65,3.6h0Zm-25.21-42.93c-.57,0-1.14.1-1.66.32-.53.21-1.01.53-1.41.94-.4.4-.72.88-.94,1.41-.22.53-.32,1.09-.32,1.66,0,1.15.46,2.25,1.27,3.06.81.81,1.91,1.27,3.06,1.27h15.98c1.15,0,2.25-.46,3.06-1.27.81-.81,1.27-1.91,1.27-3.06,0-.57-.1-1.14-.32-1.66-.22-.53-.53-1.01-.94-1.41-.4-.4-.88-.72-1.41-.94-.53-.21-1.09-.32-1.66-.32h-15.98Z"/>
</svg>