<svg width="117" height="114" viewBox="0 0 117 114" fill="none" xmlns="http://www.w3.org/2000/svg">
<path opacity="0.4" d="M87.9811 104.373C87.9762 102.645 88.4835 100.954 89.439 99.5146C90.3945 98.0749 91.7553 96.9508 93.3494 96.2843C94.9435 95.6177 96.6994 95.4386 98.3953 95.7696C100.091 96.1007 101.651 96.9269 102.877 98.144C104.104 99.3611 104.942 100.914 105.286 102.608C105.63 104.301 105.464 106.058 104.81 107.657C104.156 109.257 103.042 110.626 101.61 111.592C100.177 112.559 98.4907 113.079 96.7628 113.087C94.4453 113.088 92.2217 112.171 90.5767 110.539C88.9318 108.907 87.9988 106.69 87.9811 104.373V104.373ZM23.0759 104.373C23.0685 102.644 23.5737 100.952 24.5277 99.5112C25.4817 98.0699 26.8416 96.9438 28.4355 96.2754C30.0294 95.6069 31.7857 95.426 33.4824 95.7556C35.1791 96.0852 36.7399 96.9105 37.9676 98.1271C39.1953 99.3437 40.0348 100.897 40.3798 102.591C40.7248 104.284 40.5599 106.042 39.9059 107.642C39.2519 109.242 38.1383 110.612 36.7057 111.579C35.2732 112.546 33.586 113.067 31.8577 113.075C29.5423 113.075 27.3206 112.161 25.676 110.531C24.0313 108.901 23.0969 106.688 23.0759 104.373V104.373Z" fill="#2FC882"/>
<g filter="url(#filter0_ii_2430_4352)">
<path d="M95.7134 86.4749H32.7695C29.0776 86.4862 25.5179 85.1018 22.8037 82.5993C20.0895 80.0968 18.4212 76.6609 18.1333 72.9804L12.8057 10.0908L4.09928 8.58955C3.54242 8.49015 3.0106 8.28204 2.53417 7.97709C2.05774 7.67215 1.64605 7.27635 1.32259 6.8123C0.992798 6.35737 0.757091 5.84122 0.629278 5.29406C0.501464 4.7469 0.484112 4.17974 0.578237 3.62579C0.759286 2.60261 1.29733 1.67678 2.0967 1.01294C2.89607 0.349091 3.90497 -0.00975517 4.944 0.00020177C5.16227 -4.69958e-05 5.38028 0.0153254 5.59635 0.0462012L19.3544 2.13708C20.2975 2.31023 21.1577 2.78819 21.8028 3.49757C22.448 4.20694 22.8424 5.1085 22.9256 6.06376L24.0254 18.9854C24.0988 19.8677 24.5011 20.6901 25.1526 21.2897C25.804 21.8892 26.6569 22.222 27.5423 22.2221H105.478C107.044 22.1717 108.599 22.496 110.015 23.1681C111.43 23.8402 112.665 24.8406 113.616 26.086C114.654 27.4944 115.385 29.1048 115.763 30.8133C116.14 32.5218 116.155 34.2905 115.807 36.0052L110.324 73.8502C109.803 77.3548 108.042 80.5562 105.361 82.8728C102.68 85.1894 99.2566 86.4675 95.7134 86.4749V86.4749ZM70.5015 43.5491C69.9314 43.5424 69.3658 43.6496 68.8377 43.8644C68.3096 44.0792 67.8297 44.3973 67.4261 44.8001C67.0226 45.2028 66.7036 45.6821 66.4877 46.2098C66.2719 46.7375 66.1636 47.303 66.1692 47.873C66.1703 49.0217 66.6271 50.123 67.4393 50.9352C68.2516 51.7475 69.3529 52.2042 70.5015 52.2054H86.48C87.6287 52.2042 88.73 51.7475 89.5422 50.9352C90.3545 50.123 90.8112 49.0217 90.8124 47.873C90.818 47.303 90.7097 46.7375 90.4938 46.2098C90.278 45.6821 89.959 45.2028 89.5554 44.8001C89.1519 44.3973 88.672 44.0792 88.1439 43.8644C87.6158 43.6496 87.0501 43.5424 86.48 43.5491H70.5015Z" fill="#23724E" fill-opacity="0.72"/>
</g>
<defs>
<filter id="filter0_ii_2430_4352" x="0.518555" y="-11.904" width="115.539" height="110.283" filterUnits="userSpaceOnUse" color-interpolation-filters="sRGB">
<feFlood flood-opacity="0" result="BackgroundImageFix"/>
<feBlend mode="normal" in="SourceGraphic" in2="BackgroundImageFix" result="shape"/>
<feColorMatrix in="SourceAlpha" type="matrix" values="0 0 0 0 0 0 0 0 0 0 0 0 0 0 0 0 0 0 127 0" result="hardAlpha"/>
<feOffset dy="11.904"/>
<feGaussianBlur stdDeviation="5.95198"/>
<feComposite in2="hardAlpha" operator="arithmetic" k2="-1" k3="1"/>
<feColorMatrix type="matrix" values="0 0 0 0 0.201667 0 0 0 0 0.55 0 0 0 0 0.402222 0 0 0 1 0"/>
<feBlend mode="normal" in2="shape" result="effect1_innerShadow_2430_4352"/>
<feColorMatrix in="SourceAlpha" type="matrix" values="0 0 0 0 0 0 0 0 0 0 0 0 0 0 0 0 0 0 127 0" result="hardAlpha"/>
<feOffset dy="-11.904"/>
<feGaussianBlur stdDeviation="5.95198"/>
<feComposite in2="hardAlpha" operator="arithmetic" k2="-1" k3="1"/>
<feColorMatrix type="matrix" values="0 0 0 0 0.132344 0 0 0 0 0.320833 0 0 0 0 0.240868 0 0 0 1 0"/>
<feBlend mode="normal" in2="effect1_innerShadow_2430_4352" result="effect2_innerShadow_2430_4352"/>
</filter>
</defs>
</svg>
