<?xml version="1.0" encoding="UTF-8"?>
<svg id="Warstwa_1" data-name="Warstwa 1" xmlns="http://www.w3.org/2000/svg" viewBox="0 0 105.81 95.23">
  <defs>
    <style>
      .cls-1 {
        fill: #2fc882;
      }

      .cls-2 {
        fill: rgba(35, 114, 78, .72);
      }
    </style>
  </defs>
  <path class="cls-1" d="m38.88,62.74c-20.97,0-38.88,3.24-38.88,16.19s17.8,16.31,38.88,16.31,38.88-3.24,38.88-16.19-17.79-16.31-38.88-16.31Z"/>
  <path class="cls-2" d="m38.88,50.4c3.35.05,6.67-.57,9.78-1.81,3.11-1.24,5.94-3.09,8.33-5.43s4.3-5.13,5.6-8.21c1.31-3.08,1.99-6.39,2.02-9.74-.02-3.35-.71-6.66-2.02-9.74s-3.21-5.87-5.6-8.22c-2.39-2.34-5.22-4.19-8.33-5.43C45.55.57,42.23-.04,38.88,0c-3.35-.05-6.67.57-9.78,1.81-3.11,1.24-5.94,3.09-8.33,5.43-2.39,2.34-4.3,5.13-5.6,8.21-1.31,3.08-1.99,6.39-2.02,9.74.02,3.35.71,6.66,2.02,9.74,1.31,3.08,3.21,5.87,5.6,8.21,2.39,2.34,5.22,4.19,8.33,5.43,3.11,1.24,6.43,1.86,9.78,1.81"/>
  <path class="cls-2" d="m74.99,25.65c.02,6.89-2.08,13.63-6.02,19.29-.09.13-.14.28-.15.44-.01.16.01.32.08.46.06.14.16.27.29.37.13.1.28.16.43.18.98.16,1.97.25,2.96.27,4.83.21,9.58-1.22,13.49-4.05,3.91-2.83,6.75-6.91,8.05-11.56.84-3.19.93-6.52.27-9.75-.66-3.23-2.06-6.26-4.09-8.86-2.03-2.6-4.62-4.69-7.59-6.12-2.97-1.43-6.23-2.15-9.52-2.12-1.45,0-2.9.14-4.33.43-.2.03-.38.13-.5.3-.05.11-.07.23-.05.34.02.12.07.23.15.31,4.25,5.83,6.53,12.85,6.52,20.06"/>
  <path class="cls-1" d="m104.64,64.38c-1.84-3.83-6.27-6.47-13.04-7.76-6.53-1.24-13.17-1.81-19.81-1.7-.05,0-.09.02-.12.05-.04.03-.06.07-.07.11,0,.06,0,.12.04.17.03.05.08.09.14.11,3.71,1.79,18.02,9.59,16.23,26.08-.02.17,0,.34.05.5.05.16.15.31.27.42.12.12.27.21.43.26.16.05.33.07.5.04,3.52-.49,12.59-2.4,15.4-8.34.77-1.54,1.17-3.24,1.17-4.97s-.4-3.42-1.17-4.97"/>
</svg>