<?xml version="1.0" encoding="UTF-8"?>
<svg id="Warstwa_2" data-name="Warstwa 2" xmlns="http://www.w3.org/2000/svg" viewBox="0 0 1045.42 180.02">
  <defs>
    <style>
      .cls-1 {
        fill: #017070;
      }
    </style>
  </defs>
  <g id="Warstwa_1-2" data-name="Warstwa 1">
    <g>
      <path class="cls-1" d="m130.76,179.92c-5.29-7.04-10.5-13.97-15.85-21.09-.51.46-1.02.8-1.36,1.26-4.33,5.73-8.63,11.48-12.95,17.22-.64.85-1.31,1.68-2.01,2.59h-42.98c.55-1.08.87-2.1,1.5-2.89,8.6-10.92,16.55-22.33,24.77-33.52,10.7-14.55,21.34-29.13,32.01-43.7.31-.43.64-.85,1.09-1.45.44.37.88.62,1.17.99,2.09,2.65,4.14,5.33,6.22,8,2.01,2.58,4.04,5.15,6.03,7.75,2.58,3.38,5.09,6.81,7.7,10.17,2.46,3.17,5.11,6.18,7.46,9.42,2.04,2.81,4.43,5.34,6.24,8.34,1.01,1.68,2.59,3.02,3.98,4.59h23.32c-.58-1.01-.99-1.99-1.62-2.78-3.67-4.6-7.21-9.29-10.81-13.94-3.34-4.32-6.84-8.52-10.19-12.83-2.59-3.33-5.04-6.77-7.61-10.11-2.51-3.26-5.12-6.45-7.67-9.7-1.74-2.22-3.43-4.48-5.15-6.71-1.03-1.33-2.07-2.64-3.12-3.94-1.31-1.62-2.82-3.1-3.81-4.94-.61-1.14-2.1-1.57-2.24-3.02-2.28-1.77-3.35-4.53-5.38-6.54-1.16-1.14-2.06-2.67-3-4.04-.8-1.17-2.13-1.83-2.67-3.13-.51-1.24-1.44-2.05-2.41-2.91-1.01-.9-1.58-2.18-2.49-3.22-2.29-2.62-4.26-5.51-6.43-8.24-1.18-1.48-2.53-2.82-3.73-4.28-1.54-1.88-2.98-3.83-4.49-5.73-.65-.82-1.37-1.57-2.02-2.39-.59-.73-1-1.55-1.79-2.2-1.59-1.31-1.58-2.43-.32-4.16,2.16-2.96,4.51-5.79,6.51-8.84,2.24-3.42,4.9-6.52,7.13-9.95,1.7-2.61,3.75-5.02,5.6-7.56,1.05-1.43,2.04-2.91,3.12-4.32.57-.75,1.27-1.39,1.94-2.12,1.01.21,1.41,1.02,1.9,1.66,4.64,6.01,9.23,12.05,13.89,18.04,5.57,7.18,11.21,14.31,16.79,21.5,7.08,9.12,14.11,18.29,21.19,27.41,5.37,6.93,10.78,13.84,16.18,20.75,3.11,3.98,6.36,7.85,9.28,11.96,1.95,2.74,4.52,5.03,5.97,8.14,3.26,3.17,5.7,7.01,8.54,10.52,3.34,4.12,6.54,8.36,9.79,12.56,3.48,4.51,6.78,9.16,10.35,13.6,1.38,1.72,2.79,3.4,4.15,5.25-7.01,9.55-13.97,19.03-20.93,28.52h-80.78Z"/>
      <path class="cls-1" d="m821.47,85.03c.8.76,1.59,1.47,2.33,2.22,1.76,1.8,3.66,3.5,5.21,5.47,1.59,2,2.99,4.19,4.2,6.44,1.11,2.06,2.06,4.25,2.73,6.5,3.89,13.15,2,25.44-6,36.63-6.52,9.12-15.38,14.73-26.42,16.76-2.51.46-5.11.61-7.68.61-24.65.04-49.3.03-73.95.02-.94,0-1.88-.1-2.78-.15-.33-2.64-.4-134.35-.09-138.06.79-.75,1.8-.43,2.72-.43,9.32-.03,18.65-.02,27.97-.02,12.32,0,24.65,0,36.97,0,11.65.01,21.54,4.42,29.54,12.66,13.02,13.39,15.4,33.13,6.45,48.95-.42.74-.77,1.51-1.21,2.39Zm-74.52,50.35c.78.05,1.61.15,2.43.15,4.39.02,8.79,0,13.18,0,11.04,0,22.08-.02,33.12.02,2.2,0,4.25-.41,6.16-1.5,8.09-4.61,10.74-15.48,5.5-23.16-3-4.39-7.03-6.9-12.67-6.84-14.9.15-29.8.05-44.7.06-1.04,0-2.08.1-3.06.14-.47,3.12-.44,28.35.03,31.13Zm-.06-90.12c-.29,2.37-.48,27.43-.25,30.24.02.29.23.56.34.8.28.07.49.17.7.17,13.07.01,26.13.01,39.2.03,1.88,0,3.58-.59,5.19-1.48,7.62-4.22,9.51-12.71,7.28-19.36-2.23-6.68-7.46-10.51-14.46-10.52-11.67-.02-23.35,0-35.02,0-.95,0-1.89.08-2.97.12Z"/>
      <path class="cls-1" d="m408.96,21.13c.93,0,1.67,0,2.41,0,19.73,0,39.46.02,59.18,0,6.73,0,13.26,1.03,19.41,3.81,17.2,7.77,27.33,21.06,29.76,39.72,1.67,12.83-1.5,24.69-9.56,35.03-.84,1.08-1.93,1.97-2.82,3.03-4.94,5.88-11.16,9.9-18.21,12.75-.19.08-.35.24-.59.4.12,1.13,1.04,1.8,1.68,2.6,10.01,12.44,20.05,24.87,30.07,37.3.91,1.12,1.89,2.2,2.25,3.66-2.79.37-26.78.49-34.2.17-.88-.8-1.82-1.72-2.64-2.85-1.36-1.86-3.03-3.49-4.51-5.27-.67-.81-1.09-1.86-1.83-2.58-.69-.67-1.28-1.31-1.8-2.15-.93-1.52-2.07-2.96-3.33-4.22-1.49-1.49-2.5-3.36-4.11-4.79-1.22-1.08-2.01-2.67-3.12-3.97-2.95-3.45-5.64-7.12-8.47-10.68-.52-.66-1.23-1.17-1.77-1.82-.54-.64-.98-1.37-1.49-2.09-2.49-.5-15.7-.54-18.61-.02-.36,3.25-.11,6.56-.16,9.85-.04,3.43,0,6.86,0,10.29v20.03c-.68.14-1.18.34-1.67.34-8.15.02-16.3.02-24.45,0-.52,0-1.03-.15-1.52-.23-.37-2.99-.33-135.4.08-138.32Zm27.74,69.78c1.11.06,2.05.15,2.98.15,8.14.01,16.27,0,24.41,0,2.57,0,5.14.09,7.71-.02,8.43-.37,14.88-4.2,18.4-11.86,3.77-8.23,3.32-16.51-1.91-24.12-4.26-6.2-10.15-9.6-17.89-9.53-10.28.09-20.56.02-30.83.03-.93,0-1.85.11-2.73.17-.37,2.67-.48,40.58-.13,45.18Z"/>
      <path class="cls-1" d="m980.49,104.54c-.45,2.98-.5,29.05-.1,31.9,1.05.51,2.25.28,3.39.28,19.19.02,38.37.01,57.56.01,1.17,0,2.33,0,3.57,0,.65,2.63.25,5.09.32,7.51.07,2.57.02,5.14.01,7.71,0,2.44-.04,4.89-.05,7.14-.3.27-.37.35-.47.4-.09.05-.2.09-.3.09-30.12.03-60.23.06-90.35.08-.32,0-.65-.03-.96-.1-.2-.05-.37-.2-.75-.41V21.69c.32-.3.38-.4.48-.44.09-.05.2-.07.31-.07,30.12-.02,60.24-.04,90.35-.05.42,0,.85.06,1.41.11.6,2.53.33,5.08.39,7.61.06,2.46.09,4.93.11,7.39.02,2.55,0,5.1,0,7.76-1.28.49-2.46.31-3.6.31-19.19.01-38.37,0-57.56.01-1.16,0-2.32.06-3.25.09-.28.27-.38.33-.43.41-.05.09-.09.2-.09.3-.06,1.5-.15,2.99-.16,4.49-.03,9.32-.03,18.64-.04,27.96,0,.2.11.4.18.6.04.1.11.18.24.4,2.55.46,5.23.15,7.88.2,2.68.06,5.36.01,8.04.01h15.76c2.68,0,5.36,0,8.04,0,2.66,0,5.33.03,7.94.04.56,2.38.73,19.39.29,25.2-.88.83-2,.48-3.02.48-13.51.02-27.01.02-40.52.02h-4.64Z"/>
      <path class="cls-1" d="m598.02,159.69c-9.98,0-19.59,0-29.24,0-.22-1.43.47-2.33.85-3.27,14.61-35.67,29.24-71.33,43.85-107,.76-1.86,1.72-3.65,2.05-5.72.19-1.17,1.18-2.19,1.67-3.35,2.27-5.43,4.49-10.89,6.74-16.33.37-.89.76-1.77,1.12-2.62,2.5-.34,24.54-.45,29.61-.15.08.06.18.1.25.17.08.07.15.16.2.25.2.38.41.75.57,1.15,18.57,45.27,37.13,90.55,55.68,135.82.07.18.03.4.04.6-.07.08-.12.19-.2.25-.08.06-.19.11-.29.11-8.58.03-17.15.06-25.73.08-.95,0-1.91,0-2.88,0-.85-1.4-1.45-2.75-2.04-4.12-.88-2.04-1.36-4.25-2.81-6.05-.48-.6-.31-1.67-.68-2.4-.91-1.78-1.13-3.92-2.7-5.37-.14-2.09-1.26-3.82-2.02-5.69-3.8-9.32-7.57-18.65-11.31-27.99-.58-1.44-1.62-2.61-1.9-4.25-.29-1.65-1.22-3.18-1.88-4.76-.62-1.48-1.35-2.93-1.83-4.45-.69-2.21-2.09-4.09-2.72-6.35-.64-2.25-1.73-4.38-2.63-6.55-.94-2.27-1.9-4.54-2.85-6.82-.91-2.17-1.81-4.35-2.72-6.52-.9-2.18-1.79-4.36-2.7-6.53-.45-1.08-.94-2.14-1.57-3.57-14.43,33.8-27.31,67.83-41.93,101.43Z"/>
      <path class="cls-1" d="m403.27,159.59h-29.24c-7.28-16.8-14.08-33.77-21.06-50.68-6.93-16.8-13.91-33.58-21.09-50.73-14.47,33.93-27.34,67.97-41.82,101.22-3.05.4-26.92.37-29.34,0-.05-.09-.12-.18-.15-.28-.03-.1-.05-.22-.02-.31,18.81-45.83,37.62-91.66,56.5-137.65,9.94-.06,19.78-.02,29.53-.03.34.5.66.82.82,1.2,18.66,45.45,37.3,90.9,55.94,136.36.07.17-.02.4-.05.9Z"/>
      <path class="cls-1" d="m877.49,131.78c5.7.2,11.04.07,16.37.1,5.36.02,10.72,0,16.08,0h32.22c.16.55.38.94.38,1.32.02,8.47.01,16.94,0,25.4,0,.21-.1.41-.16.67-1.05.72-2.26.39-3.4.39-12.87.03-25.73.02-38.6.02h-50.33c-.14-.69-.32-1.28-.37-1.88-.06-.75-.02-1.5-.02-2.25,0-43.41,0-86.83,0-130.24,0-1.27.05-2.54.07-3.61.25-.27.3-.37.39-.42.09-.05.2-.08.31-.08,8.36-.03,16.72-.05,25.08-.07.42,0,.84.07,1.41.13.19.6.47,1.17.53,1.76.09.96.03,1.93.03,2.89,0,33.87,0,67.75,0,101.62v4.24Z"/>
      <path class="cls-1" d="m18.19,179.94c-2.55-3.31-4.8-6.26-7.09-9.18-2.72-3.47-5.48-6.91-8.24-10.36-.52-.65-1.2-1.19-1.68-1.87-.48-.67-.81-1.44-1.17-2.12.35-.54.56-.91.81-1.25,2.65-3.63,5.34-7.25,7.96-10.9,2.6-3.63,5.08-7.34,7.72-10.94,3.35-4.57,6.87-9.01,10.2-13.59,4.06-5.6,8.23-11.11,12.27-16.72,1.66-2.31,3.24-4.67,5.01-6.9,1.72-2.16,3.34-4.4,4.88-6.68,2.23-3.29,4.68-6.4,6.98-9.63,1.99-2.8,3.96-5.65,6.01-8.4,2.05-2.75,4.1-5.54,6.16-8.29,2-2.66,4.08-5.29,5.83-8.15,1.03-1.68,2.43-3.13,3.63-4.63.28.08.39.1.49.14.1.04.2.08.27.15.22.23.42.48.62.73.35.41.71.8,1.04,1.22,8.24,10.64,16.47,21.28,24.64,31.85-.3,2.05-1.84,3.15-2.87,4.57-2.32,3.2-4.68,6.39-7.02,9.58-9.36,12.78-18.73,25.55-28.07,38.34-10.1,13.83-20.18,27.67-30.28,41.5-.37.51-.79.99-1.28,1.6-5.75-.04-11.51.08-16.82-.07Z"/>
      <path class="cls-1" d="m532.54,21.2h28.31c.12.63.28,1.22.32,1.82.06.75.01,1.5.01,2.25,0,43.52,0,87.03,0,130.55v3.48c-.51.17-.81.35-1.1.35-8.9.02-17.8.02-26.69,0-.3,0-.6-.19-.88-.28-.34-2.66-.35-134.91.02-138.16Z"/>
    </g>
  </g>
</svg>